<?xml version="1.0" encoding="UTF-8" standalone="no"?>
<!-- Created with Inkscape (http://www.inkscape.org/) -->

<svg
   xmlns:dc="http://purl.org/dc/elements/1.1/"
   xmlns:cc="http://creativecommons.org/ns#"
   xmlns:rdf="http://www.w3.org/1999/02/22-rdf-syntax-ns#"
   xmlns:svg="http://www.w3.org/2000/svg"
   xmlns="http://www.w3.org/2000/svg"
   xmlns:sodipodi="http://sodipodi.sourceforge.net/DTD/sodipodi-0.dtd"
   xmlns:inkscape="http://www.inkscape.org/namespaces/inkscape"
   id="svg2"
   version="1.1"
   inkscape:version="0.91 r13725"
   width="920"
   height="195"
   viewBox="0 0 920 195"
   sodipodi:docname="repomodraw.svg"
   inkscape:export-filename="C:\Users\chris\Pictures\FPArma\Repo banners\Blank.png"
   inkscape:export-xdpi="90"
   inkscape:export-ydpi="90">
  <metadata
     id="metadata8">
    <rdf:RDF>
      <cc:Work
         rdf:about="">
        <dc:format>image/svg+xml</dc:format>
        <dc:type
           rdf:resource="http://purl.org/dc/dcmitype/StillImage" />
        <dc:title></dc:title>
      </cc:Work>
    </rdf:RDF>
  </metadata>
  <defs
     id="defs6" />
  <sodipodi:namedview
     pagecolor="#767676"
     bordercolor="#666666"
     borderopacity="1"
     objecttolerance="10"
     gridtolerance="10"
     guidetolerance="10"
     inkscape:pageopacity="0"
     inkscape:pageshadow="2"
     inkscape:window-width="1920"
     inkscape:window-height="1017"
     id="namedview4"
     showgrid="false"
     inkscape:zoom="0.72"
     inkscape:cx="249.81521"
     inkscape:cy="97.076635"
     inkscape:window-x="-8"
     inkscape:window-y="-8"
     inkscape:window-maximized="1"
     inkscape:current-layer="svg2" />
  <g
     id="g4341"
     transform="matrix(5.1069754,0,0,5.1069754,-52.976459,-141.94119)">
    <path
       id="path4143"
       d="m 100.9707,27.949219 c -25.55562,0.0047 -51.151972,4.511499 -76.787106,13.503906 l 5.52539,17.738281 c 48.66725,-14.402598 96.307926,-19.897638 142.035156,0 l 5.76953,-17.738281 C 152.04221,32.441865 126.52636,27.944505 100.9707,27.949219 Z m -1.697262,4.884765 0.285156,8.97461 -1.859375,0.05859 -3.476563,-5.216797 0.167969,5.322265 -1.986328,0.0625 -0.285156,-8.974609 1.859375,-0.05859 3.476562,5.214844 -0.167969,-5.320313 1.986329,-0.0625 z m 4.517582,0 3.14257,0.04102 c 1.20567,0.01565 2.00389,0.835346 1.98829,2.041016 l -0.0156,1.191406 -1.98828,-0.02539 0.0137,-1.089843 c 0.003,-0.256531 -0.12239,-0.387625 -0.37891,-0.390626 l -2.41211,-0.03125 c -0.2565,-0.0033 -0.38567,0.12434 -0.38867,0.38086 l -0.0625,4.746094 c -0.003,0.25652 0.12434,0.385671 0.38086,0.388672 l 2.41016,0.03125 c 0.25652,0.0033 0.38762,-0.122387 0.39062,-0.378907 l 0.0137,-1.089843 1.98828,0.02539 -0.0156,1.19336 c -0.0156,1.205679 -0.83339,2.001928 -2.03906,1.986328 l -3.14258,-0.04102 c -1.19284,-0.01548 -1.99021,-0.833393 -1.97461,-2.039062 l 0.0644,-4.951172 c 0.0157,-1.20567 0.83255,-2.003782 2.0254,-1.988282 z m 7.68359,0.158204 1.98437,0.115234 -0.21289,3.611328 3.17579,0.1875 0.21289,-3.611328 1.98437,0.117187 -0.52734,8.962891 -1.98438,-0.117188 0.21289,-3.623046 -3.17578,-0.1875 -0.21289,3.625 -1.98437,-0.117188 0.52734,-8.96289 z m -21.855469,0.203124 0.519531,6.945313 c 0.09007,1.20241 -0.655012,2.068103 -1.857422,2.158203 l -3.132812,0.236328 c -1.189611,0.08911 -2.056385,-0.656975 -2.146485,-1.859375 l -0.519531,-6.945312 1.982422,-0.148438 0.511718,6.841797 c 0.01916,0.2558 0.15628,0.374669 0.41211,0.355469 l 2.40625,-0.179688 c 0.2558,-0.01917 0.372715,-0.156279 0.353516,-0.412109 l -0.511719,-6.84375 1.982422,-0.148438 z m -10.800782,0.953126 c 0.975721,0.05988 1.676117,0.733131 1.796875,1.78125 l 0.22461,1.951171 c 0.13801,1.19785 -0.571681,2.092459 -1.769532,2.230469 l -2.878906,0.332031 0.341797,2.96875 -1.976562,0.228516 -1.027344,-8.921875 4.855469,-0.558594 c 0.149731,-0.01725 0.294205,-0.02027 0.433593,-0.01172 z m 49.083981,0.205078 2.41797,0.30664 1.78125,9.277344 -2.07422,-0.263672 -0.33398,-1.955078 -3.01563,-0.384766 -0.8125,1.810547 -2.00976,-0.255859 4.04687,-8.535156 z m -56.535152,0.65625 0.259765,1.71289 -4.222656,0.638672 0.28125,1.865234 3.589844,-0.544921 0.259765,1.71289 -3.589844,0.542969 0.285157,1.876953 4.222656,-0.638672 0.259766,1.710938 -6.189453,0.9375 -1.345704,-8.876953 6.189454,-0.9375 z m 63.599612,0.298828 4.8164,0.832031 c 1.1882,0.20513 1.84771,1.139925 1.64258,2.328125 l -0.33398,1.933594 c -0.16803,0.97331 -0.83671,1.599269 -1.72071,1.667968 l 0.86914,3.261719 -2.14843,-0.371093 -0.75586,-3.164063 -1.42774,-0.246094 -0.50976,2.945313 -1.95899,-0.337891 1.52735,-8.849609 z m -56.740238,0.613281 -2.523437,0.291016 0.289063,2.509765 2.523437,-0.291015 c 0.25485,-0.02936 0.367291,-0.170922 0.337891,-0.425782 l -0.201172,-1.746093 c -0.02936,-0.25485 -0.170922,-0.367291 -0.425782,-0.337891 z m 50.580078,0.679687 -1.38867,3.082032 1.96094,0.248047 -0.57227,-3.330079 z m -67.572265,0.07031 c 0.977515,-0.009 1.723658,0.615338 1.917969,1.652344 l 0.21875,1.171875 -1.953125,0.367187 -0.201172,-1.072265 c -0.04725,-0.25217 -0.197059,-0.353841 -0.449219,-0.306641 l -2.371094,0.443359 c -0.25217,0.04725 -0.35384,0.197059 -0.30664,0.449219 l 0.875,4.666016 c 0.04725,0.25217 0.197059,0.35384 0.449218,0.30664 l 2.369141,-0.443359 c 0.25217,-0.04725 0.355794,-0.197059 0.308594,-0.449219 l -0.201172,-1.072265 1.953125,-0.365235 0.220703,1.171875 c 0.22206,1.18515 -0.424225,2.12755 -1.609375,2.34961 l -3.08789,0.580078 c -1.172551,0.2197 -2.115831,-0.426178 -2.337891,-1.611328 l -0.912109,-4.867188 c -0.22206,-1.18515 0.423163,-2.127956 1.595703,-2.347656 l 3.089843,-0.578125 c 0.148144,-0.02776 0.291996,-0.04363 0.431641,-0.04492 z m 82.792965,0.246094 1.87696,0.416015 1.2207,4.501954 3.01172,-3.5625 1.8789,0.417968 -1.94531,8.765625 -1.9414,-0.43164 1.09765,-4.945313 -2.92187,3.451172 -1.18555,-4.363281 -1.09766,4.945312 -1.9414,-0.429687 1.94726,-8.765625 z m -7.39453,0.435547 -0.42969,2.490234 2.50196,0.433594 c 0.25281,0.04364 0.40161,-0.06164 0.44531,-0.314453 l 0.29883,-1.732422 c 0.0437,-0.25281 -0.0616,-0.39976 -0.31445,-0.44336 l -2.50196,-0.433593 z m -85.384763,1.27539 4.822265,8.125 -2.041015,0.455078 -0.976563,-1.726562 -2.966796,0.662109 -0.150391,1.978516 -1.978516,0.441406 0.91211,-9.404297 2.378906,-0.53125 z m 105.322263,1.257813 2.35157,0.638672 0.47851,9.435547 -2.01758,-0.548829 -0.0586,-1.982421 -2.9336,-0.798829 -1.05664,1.681641 -1.95507,-0.533203 5.1914,-7.892578 z m -111.371091,0.117187 0.425781,1.679688 -3.892578,0.984375 0.55664,2.201172 3.271485,-0.828125 0.423828,1.679687 -3.269531,0.828125 0.796875,3.144531 -1.927735,0.488282 -2.205078,-8.703125 5.820313,-1.47461 z m 5.283203,0.964844 -0.259766,3.371094 1.927735,-0.431641 -1.667969,-2.939453 z m 106.671878,1.269531 -1.80274,2.859375 1.90625,0.519532 -0.10351,-3.378907 z"
       style="fill:#bd141a;fill-opacity:1;fill-rule:evenodd;stroke:none;stroke-width:1px;stroke-linecap:butt;stroke-linejoin:miter;stroke-opacity:1"
       inkscape:connector-curvature="0" />
    <path
       sodipodi:nodetypes="cccccccc"
       inkscape:connector-curvature="0"
       id="path4160"
       d="m 53.217149,54.163047 -3.68285,10.368992 c -10.17059,-4.73682 -21.911236,-4.44944 -35.355336,1.289 l 6.01532,-11.96926 -9.82093,-5.03322 12.64445,-3.56009 5.34013,15.95901 c 8.141952,-2.929512 16.489354,-4.808648 24.859216,-7.054432 z"
       style="fill:#bd141a;fill-opacity:1;fill-rule:evenodd;stroke:none;stroke-width:1px;stroke-linecap:butt;stroke-linejoin:miter;stroke-opacity:1" />
    <path
       sodipodi:nodetypes="cccccccc"
       inkscape:connector-curvature="0"
       id="path4160-2"
       d="m 147.84893,52.426936 3.50924,12.105103 c 10.17059,-4.73682 21.91124,-4.44944 35.35534,1.289 l -6.01532,-11.96926 9.82093,-5.03322 -12.64445,-3.56009 -5.34013,15.95901 c -8.12905,-3.825592 -16.326,-7.040006 -24.68561,-8.790543 z"
       style="fill:#bd141a;fill-opacity:1;fill-rule:evenodd;stroke:none;stroke-width:1px;stroke-linecap:butt;stroke-linejoin:miter;stroke-opacity:1" />
  </g>
</svg>
