<?xml version="1.0" encoding="UTF-8" standalone="no"?>
<!-- Created with Inkscape (http://www.inkscape.org/) -->

<svg
   xmlns:dc="http://purl.org/dc/elements/1.1/"
   xmlns:cc="http://creativecommons.org/ns#"
   xmlns:rdf="http://www.w3.org/1999/02/22-rdf-syntax-ns#"
   xmlns:svg="http://www.w3.org/2000/svg"
   xmlns="http://www.w3.org/2000/svg"
   xmlns:xlink="http://www.w3.org/1999/xlink"
   xmlns:sodipodi="http://sodipodi.sourceforge.net/DTD/sodipodi-0.dtd"
   xmlns:inkscape="http://www.inkscape.org/namespaces/inkscape"
   width="1000"
   height="1000"
   viewBox="0 0 1000 1000"
   id="svg2"
   version="1.1"
   inkscape:version="0.91 r13725"
   inkscape:export-filename="C:\Users\chris\Desktop\Scratchpad\FPA6alt.png"
   inkscape:export-xdpi="90"
   inkscape:export-ydpi="90"
   sodipodi:docname="FPA Emblem.svg">
  <defs
     id="defs4">
    <linearGradient
       inkscape:collect="always"
       id="linearGradient4198">
      <stop
         style="stop-color:#aa0000;stop-opacity:1;"
         offset="0"
         id="stop4200" />
      <stop
         style="stop-color:#aa0000;stop-opacity:0;"
         offset="1"
         id="stop4202" />
    </linearGradient>
    <linearGradient
       inkscape:collect="always"
       xlink:href="#linearGradient4198"
       id="linearGradient4512"
       x1="503.05597"
       y1="860.43317"
       x2="503.05597"
       y2="985.69208"
       gradientUnits="userSpaceOnUse"
       gradientTransform="matrix(0.90990991,0,0,0.90990991,1360.2637,-352.27836)" />
    <linearGradient
       inkscape:collect="always"
       xlink:href="#linearGradient4198"
       id="linearGradient4514"
       x1="503.05597"
       y1="860.43317"
       x2="503.05597"
       y2="985.69208"
       gradientUnits="userSpaceOnUse"
       gradientTransform="matrix(0.90990991,0,0,0.90990991,1360.2637,-352.27836)" />
    <linearGradient
       inkscape:collect="always"
       xlink:href="#linearGradient4198"
       id="linearGradient4623"
       x1="503.05597"
       y1="860.43317"
       x2="503.05597"
       y2="985.69208"
       gradientUnits="userSpaceOnUse"
       gradientTransform="matrix(0.90990991,0,0,0.90990991,1360.2637,-352.27836)" />
    <linearGradient
       inkscape:collect="always"
       xlink:href="#linearGradient4198"
       id="linearGradient4625"
       x1="503.05597"
       y1="860.43317"
       x2="503.05597"
       y2="985.69208"
       gradientUnits="userSpaceOnUse"
       gradientTransform="matrix(0.90990991,0,0,0.90990991,1360.2637,-352.27836)" />
    <linearGradient
       inkscape:collect="always"
       xlink:href="#linearGradient4198"
       id="linearGradient4819"
       x1="503.05597"
       y1="860.43317"
       x2="503.05597"
       y2="985.69208"
       gradientUnits="userSpaceOnUse"
       gradientTransform="matrix(0.90990991,0,0,0.90990991,1360.2637,-352.27836)" />
    <linearGradient
       inkscape:collect="always"
       xlink:href="#linearGradient4198"
       id="linearGradient4821"
       x1="503.05597"
       y1="860.43317"
       x2="503.05597"
       y2="985.69208"
       gradientUnits="userSpaceOnUse"
       gradientTransform="matrix(0.90990991,0,0,0.90990991,1360.2637,-352.27836)" />
  </defs>
  <sodipodi:namedview
     id="base"
     pagecolor="#ffffff"
     bordercolor="#666666"
     borderopacity="1.0"
     inkscape:pageopacity="0"
     inkscape:pageshadow="2"
     inkscape:zoom="0.35355339"
     inkscape:cx="264.79284"
     inkscape:cy="749.22294"
     inkscape:document-units="px"
     inkscape:current-layer="layer1"
     showgrid="false"
     units="px"
     inkscape:window-width="1920"
     inkscape:window-height="1017"
     inkscape:window-x="-8"
     inkscape:window-y="-8"
     inkscape:window-maximized="1" />
  <metadata
     id="metadata7">
    <rdf:RDF>
      <cc:Work
         rdf:about="">
        <dc:format>image/svg+xml</dc:format>
        <dc:type
           rdf:resource="http://purl.org/dc/dcmitype/StillImage" />
        <dc:title></dc:title>
      </cc:Work>
    </rdf:RDF>
  </metadata>
  <g
     inkscape:label="Layer 1"
     inkscape:groupmode="layer"
     id="layer1"
     transform="translate(0,-52.362161)">
    <g
       id="g4700"
       transform="matrix(1.0208913,0,0,1.0208894,-10.445653,-11.538515)">
      <path
         id="rect4598"
         transform="translate(0,52.362161)"
         d="m 372.08008,47.142578 0,128.697262 A 348.57144,348.57144 0 0 1 500,151.42773 348.57144,348.57144 0 0 1 627.91992,176.08984 l 0,-128.947262 -255.83984,0 z m 0,776.767582 0,128.94726 255.83984,0 0,-128.69726 A 348.57144,348.57144 0 0 1 500,848.57227 348.57144,348.57144 0 0 1 372.08008,823.91016 Z"
         style="fill:#bd141a;fill-rule:evenodd;stroke:none;stroke-width:1px;stroke-linecap:butt;stroke-linejoin:miter;stroke-opacity:1;fill-opacity:1"
         inkscape:connector-curvature="0" />
      <path
         transform="translate(0,52.362161)"
         id="rect4598-6"
         d="m 686.23633,47.142578 0,158.681642 A 348.57144,348.57144 0 0 1 848.57227,500 348.57144,348.57144 0 0 1 686.23633,794.51562 l 0,158.3418 255.84179,0 0,-905.714842 -255.84179,0 z"
         style="fill:#bd141a;fill-rule:evenodd;stroke:none;stroke-width:1px;stroke-linecap:butt;stroke-linejoin:miter;stroke-opacity:1;fill-opacity:1"
         inkscape:connector-curvature="0" />
      <path
         id="rect4598-0"
         transform="translate(0,52.362161)"
         d="m 57.921875,47.142578 0,905.714842 255.841795,0 0,-158.68164 A 348.57144,348.57144 0 0 1 151.42773,500 348.57144,348.57144 0 0 1 313.76367,205.48438 l 0,-158.341802 -255.841795,0 z"
         style="fill:#bd141a;fill-rule:evenodd;stroke:none;stroke-width:1px;stroke-linecap:butt;stroke-linejoin:miter;stroke-opacity:1;fill-opacity:1"
         inkscape:connector-curvature="0" />
      <path
         style="fill:#bd141a;fill-opacity:1"
         d="m 480.62456,877.60919 c -33.77882,-2.36517 -64.17054,-8.62601 -92.01111,-18.95493 -14.59455,-5.41456 -25.99612,-10.45301 -37.79705,-16.70275 -51.60688,-27.33124 -93.11702,-66.75225 -124.87402,-118.58954 -24.71533,-40.34326 -41.46756,-88.86716 -46.71424,-135.3105 -1.52066,-13.46151 -1.69897,-17.30121 -1.69197,-36.42976 0.0137,-19.59123 0.15648,-22.58294 1.90065,-38.0951 6.84894,-60.9117 31.78008,-121.31732 69.82647,-169.18233 12.94888,-16.29054 32.32685,-35.7629 48.79623,-49.03362 16.70085,-13.45727 36.12004,-25.81301 55.92088,-35.58046 24.90078,-12.28313 50.9447,-21.03379 79.08408,-26.57186 22.21666,-4.37244 42.88271,-6.31127 67.33619,-6.31725 32.80218,-0.008 61.11123,3.87332 91.07776,12.4873 73.4761,21.12091 136.54842,68.26237 178.28786,133.25579 7.01901,10.92942 11.39236,18.61619 17.17949,30.19597 20.05155,40.1214 31.13055,80.63407 34.95424,127.81638 0.84324,10.4065 0.71561,39.39906 -0.21363,48.50362 -5.36386,52.55567 -22.62921,102.83778 -51.10777,148.84155 -40.42183,65.29702 -98.57156,112.28987 -166.30106,134.39345 -24.0489,7.84839 -44.87541,12.06305 -72.65141,14.70227 -7.9341,0.75394 -42.81526,1.14493 -51.00159,0.57177 z m 45.3811,-52.41915 c 46.50665,-5.48097 88.72142,-23.79225 127.60816,-55.35214 17.44546,-14.15833 36.73867,-34.39615 48.26731,-50.6301 l 2.65432,-3.73776 -0.72908,-2.09099 c -2.63522,-7.55728 -13.49235,-26.45228 -20.57922,-35.81449 -29.43831,-38.88994 -69.15936,-61.77537 -117.04475,-67.43574 -22.53263,-2.66353 -45.00756,-1.43672 -65.08302,3.55264 -37.72478,9.37566 -70.21402,31.81469 -96.11273,66.38115 -7.73448,10.32298 -15.74153,23.57412 -20.53169,33.9783 l -2.03419,4.41816 -3.22705,-1.1777 c -3.85941,-1.40856 -9.93229,-2.97191 -15.35247,-3.95223 -5.10627,-0.92357 -15.16454,-0.94163 -19.63653,-0.0354 -8.12835,1.6474 -17.1358,7.32311 -29.38761,18.51755 -2.11798,1.93534 -3.85117,3.66971 -3.85117,3.85419 0,0.58622 6.24309,8.76739 10.15004,13.30134 5.6007,6.49915 16.32993,17.02617 23.16265,22.72595 8.08096,6.74111 12.14644,9.77845 20.5795,15.37525 31.54393,20.93461 66.8555,33.50235 106.39878,37.86836 10.93117,1.20683 15.85253,1.40435 31.64187,1.26983 12.64499,-0.1077 17.0373,-0.30097 23.10688,-1.01632 z M 768.52273,557.9709 c 0,-0.40073 -0.1955,-4.2883 -0.4333,-8.63905 -1.82454,-33.37179 -12.23505,-70.64144 -29.53914,-105.75038 -15.89087,-32.24123 -35.73332,-59.62177 -60.3724,-83.30692 -28.32539,-27.2289 -62.6051,-47.35187 -99.70741,-58.53054 -36.6796,-11.05133 -78.90659,-13.71251 -120.32827,-7.58324 -63.76568,9.43559 -119.95569,41.34772 -161.05754,91.46993 -32.20678,39.27494 -55.144,89.95663 -62.68725,138.51257 -1.69706,10.92359 -2.95243,24.39153 -2.95243,31.67497 l 0,2.88125 268.53942,0 c 255.47459,0 268.53928,-0.0354 268.53832,-0.72859 z M 345.68458,495.31173 c -2.5087,-2.57611 -5.44753,-5.64266 -6.53063,-6.81457 l -1.96948,-2.13074 16.97136,-16.60456 c 9.33428,-9.13251 16.97136,-16.74388 16.97136,-16.91415 0,-0.17027 -7.29501,-7.73056 -16.21124,-16.80066 -8.91609,-9.07009 -16.55042,-16.92242 -16.96503,-17.44963 l -0.75408,-0.95857 7.3332,-6.69078 c 6.40959,-5.84809 7.42469,-6.62649 8.05994,-6.18033 0.39977,0.28075 7.70646,7.34884 16.2372,15.70686 8.53073,8.35803 15.7451,15.19641 16.03181,15.19641 0.58593,0 3.98567,-3.20044 20.96485,-19.73588 6.48887,-6.31929 11.93447,-11.54058 12.10138,-11.60287 0.33645,-0.1257 13.15495,13.12786 13.15495,13.60141 0,0.16371 -6.93219,8.01883 -15.40468,17.45584 -8.47249,9.43699 -15.40454,17.31719 -15.40454,17.51152 0,0.19434 6.99154,7.78746 15.5367,16.87361 l 15.5367,16.52026 -3.7436,4.04004 c -2.05891,2.22201 -5.06671,5.34409 -6.68408,6.93795 l -2.94062,2.89794 -16.55482,-16.76906 -16.55482,-16.76906 -17.07,16.66494 c -9.38854,9.16574 -17.17811,16.67237 -17.31027,16.68143 -0.13188,0.008 -2.29287,-2.09125 -4.80156,-4.66735 z m 224.62883,-0.23084 c -2.15988,-2.22016 -5.23582,-5.39833 -6.83547,-7.06259 l -2.90861,-3.02593 17.65524,-17.38628 17.65523,-17.38628 -6.85141,-7.06624 c -18.54325,-19.12465 -28.06038,-29.02366 -28.15998,-29.28969 -0.1099,-0.29198 14.24423,-13.87209 14.94267,-14.13741 0.20167,-0.0767 7.77597,7.23015 16.83178,16.23725 9.05567,9.00712 16.64302,16.43911 16.86063,16.51553 0.21761,0.0764 7.80798,-7.23035 16.86736,-16.23727 9.05937,-9.00691 16.62488,-16.43127 16.81199,-16.49856 0.31639,-0.11375 13.43493,13.31981 13.65158,13.9794 0.0536,0.16419 -7.10515,8.42882 -15.909,18.36583 l -16.00709,18.06734 1.75338,1.94501 c 0.96441,1.06976 8.12354,8.8362 15.90914,17.25877 7.78559,8.42256 14.15548,15.46531 14.15548,15.65057 0,0.48323 -13.16594,14.21107 -13.48988,14.0656 -0.14837,-0.0668 -7.74493,-7.84955 -16.88096,-17.29526 -9.13604,-9.44573 -16.72009,-17.17404 -16.85349,-17.17404 -0.13325,0 -7.08,6.85059 -15.43696,15.22353 -8.35681,8.37295 -16.2383,16.1379 -17.51442,17.25546 l -2.32034,2.03193 -3.92687,-4.03667 z"
         id="path4147-0-4"
         inkscape:connector-curvature="0" />
      <path
         style="color:#000000;font-style:normal;font-variant:normal;font-weight:normal;font-stretch:normal;font-size:medium;line-height:normal;font-family:sans-serif;text-indent:0;text-align:start;text-decoration:none;text-decoration-line:none;text-decoration-style:solid;text-decoration-color:#000000;letter-spacing:normal;word-spacing:normal;text-transform:none;direction:ltr;block-progression:tb;writing-mode:lr-tb;baseline-shift:baseline;text-anchor:start;white-space:normal;clip-rule:nonzero;display:inline;overflow:visible;visibility:visible;opacity:1;isolation:auto;mix-blend-mode:normal;color-interpolation:sRGB;color-interpolation-filters:linearRGB;solid-color:#000000;solid-opacity:1;fill:#bd141a;fill-opacity:1;fill-rule:evenodd;stroke:none;stroke-width:9.79537106;stroke-linecap:butt;stroke-linejoin:miter;stroke-miterlimit:4;stroke-dasharray:none;stroke-dashoffset:0;stroke-opacity:1;color-rendering:auto;image-rendering:auto;shape-rendering:auto;text-rendering:auto;enable-background:accumulate"
         d="m 20.572266,68.753906 0,4.896485 0,962.320309 958.855464,0 0,-967.216794 -958.855464,0 z m 9.794922,9.794922 939.265622,0 0,947.626972 -939.265622,0 0,-947.626972 z"
         id="rect4644"
         inkscape:connector-curvature="0" />
    </g>
  </g>
</svg>
